<svg fill="none" height="49" viewBox="0 0 51 49" width="51" xmlns="http://www.w3.org/2000/svg"><path d="m17.6667 47h-13.05559c-1.44206 0-2.61111-1.1456-2.61111-2.5589v-19.4112c0-.6786.27511-1.3296.76477-1.8094l20.88893-20.47101c1.0196-.99932 2.673-.99932 3.6926 0l20.8889 20.47101c.4896.4798.7648 1.1308.7648 1.8094v19.4112c0 1.4133-1.169 2.5589-2.6111 2.5589h-13.0556m-15.6666 0h15.6666m-15.6666 0v-15.3533c0-1.4133 1.169-2.5589 2.6111-2.5589h10.4444c1.4421 0 2.6111 1.1456 2.6111 2.5589v15.3533" stroke="#fff" stroke-linejoin="round" stroke-width="4"/></svg>
